HIERARCHY
ROOT Hips
{
    OFFSET 0.000000 0.000000 0.000000
    CHANNELS 6 Xposition Yposition Zposition Zrotation Xrotation Yrotation
    JOINT Spine
    {
        OFFSET -0.000000 7.925200 0.000000
        CHANNELS 3 Zrotation Xrotation Yrotation
        JOINT Spine1
        {
            OFFSET -0.000000 23.364719 0.000000
            CHANNELS 3 Zrotation Xrotation Yrotation
            JOINT Neck
            {
                OFFSET -0.000000 23.268766 2.115342
                CHANNELS 3 Zrotation Xrotation Yrotation
                JOINT Head
                {
                    OFFSET -0.000000 13.530829 -1.932976
                    CHANNELS 3 Zrotation Xrotation Yrotation
                    End Site
                    {
                        OFFSET -0.000000 24.162195 0.000000
                    }
                }
            }
            JOINT LeftShoulder
            {
                OFFSET 3.858291 22.792089 -0.033814
                CHANNELS 3 Zrotation Xrotation Yrotation
                JOINT LeftArm
                {
                    OFFSET 7.057024 0.000000 0.000000
                    CHANNELS 3 Zrotation Xrotation Yrotation
                    JOINT LeftForeArm
                    {
                        OFFSET 34.734173 0.000000 0.000000
                        CHANNELS 3 Zrotation Xrotation Yrotation
                        JOINT LeftHand
                        {
                            OFFSET 23.943203 0.000000 0.000000
                            CHANNELS 3 Zrotation Xrotation Yrotation
                            End Site
                            {
                                OFFSET 14.497317 0.000000 0.000000
                            }
                        }
                    }
                }
            }
            JOINT RightShoulder
            {
                OFFSET -3.868823 22.792089 -0.033814
                CHANNELS 3 Zrotation Xrotation Yrotation
                JOINT RightArm
                {
                    OFFSET -7.057024 0.000000 0.000000
                    CHANNELS 3 Zrotation Xrotation Yrotation
                    JOINT RightForeArm
                    {
                        OFFSET -34.734173 0.000000 0.000000
                        CHANNELS 3 Zrotation Xrotation Yrotation
                        JOINT RightHand
                        {
                            OFFSET -23.943203 0.000000 0.000000
                            CHANNELS 3 Zrotation Xrotation Yrotation
                            End Site
                            {
                                OFFSET -14.497317 0.000000 0.000000
                            }
                        }
                    }
                }
            }
        }
    }
    JOINT LeftUpLeg
    {
        OFFSET 9.664878 0.000000 0.000000
        CHANNELS 3 Zrotation Xrotation Yrotation
        JOINT LeftLeg
        {
            OFFSET -0.000000 -38.728706 0.000000
            CHANNELS 3 Zrotation Xrotation Yrotation
            JOINT LeftFoot
            {
                OFFSET -0.000000 -40.242161 0.000000
                CHANNELS 3 Zrotation Xrotation Yrotation
                JOINT LeftToeBase
                {
                    OFFSET -0.000000 -6.282171 14.497317
                    CHANNELS 3 Zrotation Xrotation Yrotation
                    End Site
                    {
                        OFFSET -0.000000 0.000000 3.865951
                    }
                }
            }
        }
    }
    JOINT RightUpLeg
    {
        OFFSET -9.664878 0.000000 0.000000
        CHANNELS 3 Zrotation Xrotation Yrotation
        JOINT RightLeg
        {
            OFFSET -0.000000 -38.728706 0.000000
            CHANNELS 3 Zrotation Xrotation Yrotation
            JOINT RightFoot
            {
                OFFSET -0.000000 -40.242161 0.000000
                CHANNELS 3 Zrotation Xrotation Yrotation
                JOINT RightToeBase
                {
                    OFFSET -0.000000 -6.282171 14.497317
                    CHANNELS 3 Zrotation Xrotation Yrotation
                    End Site
                    {
                        OFFSET -0.000000 0.000000 3.865951
                    }
                }
            }
        }
    }
}
MOTION
Frames:    9
Frame Time:    0.008333
41.368885    88.178902    48.090622    -1.987764    -1.440529    88.880028    -1.863203    -4.274519    -1.069332    3.668699    3.242797    -1.103708    -1.089155    15.833828    6.305027    -4.380835    -2.037439    5.867208    15.667888    -1.453196    2.913893    -9.253637    10.919612    -6.819154    6.979052    -3.681417    -2.434317    -2.930436    -3.143565    -15.172176    -10.584409    -0.084353    4.588469    11.829513    2.983335    10.819268    -3.028643    -2.071336    1.538187    1.895003    -1.946751    5.076887    2.517783    2.388070    3.363681    -3.360814    -1.257666    1.375910    5.806881    -4.148768    4.059632    0.000000    0.000000    0.000000    5.606699    -0.149482    -1.005076    -1.884084    3.014295    -0.774396    -4.450339    -4.089152    -10.100744    0.000000    0.000000    0.000000    
41.353168    88.198357    48.027245    -1.951335    -1.469937    88.762848    -1.919820    -4.193670    -1.087888    3.806258    3.133791    -1.121766    -1.066250    15.888815    6.263727    -4.357856    -1.924926    5.831418    15.686958    -1.490925    2.914627    -9.253637    10.919612    -6.819154    6.806039    -3.552686    -2.173211    -2.893480    -3.037704    -15.216431    -10.609349    -0.030102    4.663323    11.780726    3.009618    10.742662    -2.998827    -2.002180    1.424149    1.951035    -1.877150    5.155778    2.498580    2.458051    3.495898    -3.367222    -1.305865    1.382789    5.853084    -4.083980    4.024248    0.000000    0.000000    0.000000    5.588357    -0.137972    -0.918119    -1.873915    3.034220    -0.726864    -4.378697    -4.021441    -10.142232    0.000000    0.000000    0.000000    
41.350636    88.204529    47.996666    -1.923107    -1.476161    88.728554    -1.958751    -4.179162    -1.112594    3.867599    3.163462    -1.148033    -1.111891    16.066700    6.189198    -4.276030    -2.207215    5.754670    15.713979    -1.496776    2.920743    -9.290122    10.944595    -6.742869    6.791914    -3.504174    -2.161349    -2.985340    -2.982570    -15.039855    -10.663302    -0.048981    4.654437    11.788753    2.963440    10.747606    -3.007544    -1.924554    1.395092    2.414233    -1.779559    5.143970    2.478465    2.508876    3.526097    -3.359236    -1.340440    1.365812    5.993446    -4.070865    4.022831    0.000000    0.000000    0.000000    5.570735    -0.109704    -0.888198    -1.867502    3.034343    -0.703966    -4.352211    -4.000413    -10.171514    0.000000    0.000000    0.000000    
41.338177    88.205482    47.968132    -1.936077    -1.488133    88.684158    -1.978827    -4.156542    -1.142864    3.924271    3.092666    -1.177041    -1.138906    16.111452    6.180932    -4.256756    -2.189426    5.749393    15.699566    -1.515543    2.920310    -9.277117    10.971155    -6.682591    6.747464    -3.443918    -2.109196    -3.098655    -2.915900    -14.870301    -10.717880    -0.060344    4.703623    11.802493    2.954240    10.725329    -3.040077    -1.756201    1.368616    2.827160    -1.594591    5.076983    2.474374    2.501177    3.541942    -3.379173    -1.355436    1.410231    5.886407    -4.042344    4.025584    0.000000    0.000000    0.000000    5.558719    -0.137133    -0.848099    -1.860088    3.044905    -0.677073    -4.339781    -3.995556    -10.188768    0.000000    0.000000    0.000000    
41.331451    88.209023    47.940056    -1.913721    -1.505291    88.642365    -1.989716    -4.096776    -1.160699    3.959245    3.025121    -1.194140    -1.091038    16.109930    6.169703    -4.310186    -2.113256    5.731854    15.730761    -1.545828    2.917340    -9.296857    10.981125    -6.631530    6.719220    -3.380472    -2.038393    -3.263102    -2.836791    -14.831385    -10.743869    -0.094400    4.722926    11.816423    3.006520    10.699063    -3.055383    -1.745124    1.297332    2.404727    -1.605145    5.020865    2.470050    2.534939    3.535051    -3.380196    -1.369229    1.406467    5.934237    -4.029644    4.067425    0.000000    0.000000    0.000000    5.549330    -0.119536    -0.815338    -1.847099    3.045619    -0.602406    -4.157489    -4.062610    -10.283156    0.000000    0.000000    0.000000    
41.332661    88.215240    47.907291    -1.856277    -1.520396    88.610786    -1.943976    -3.972905    -1.190004    3.891562    2.887122    -1.220688    -1.027991    16.199587    6.172425    -4.345950    -2.125208    5.727560    15.772425    -1.519211    2.922493    -9.291204    10.975356    -6.579108    6.677984    -3.333881    -1.979176    -3.371318    -2.782050    -14.772061    -10.692089    -0.105131    4.781305    11.785723    2.976403    10.638713    -3.026660    -1.694556    1.324036    2.367711    -1.557000    4.963379    2.457494    2.615196    3.494563    -3.380486    -1.401120    1.429830    6.126083    -4.023318    4.095975    0.000000    0.000000    0.000000    5.533635    -0.050211    -0.814187    -1.834576    3.026630    -0.589656    -4.120915    -4.044988    -10.279526    0.000000    0.000000    0.000000    
41.323929    88.216293    47.879398    -1.840038    -1.538789    88.575409    -1.941856    -3.924849    -1.203064    3.892885    2.841446    -1.233156    -0.949806    16.238293    6.145986    -4.416430    -2.170380    5.686608    15.836165    -1.516597    2.938722    -9.308068    10.894848    -6.576669    6.590123    -3.289999    -1.880945    -3.187537    -2.763660    -14.965125    -10.688735    -0.130076    4.778675    11.766763    2.953204    10.605268    -3.033183    -1.652234    1.304214    2.322827    -1.518165    4.910032    2.462854    2.636843    3.448438    -3.399453    -1.408785    1.445481    6.173043    -4.020760    4.161567    0.000000    0.000000    0.000000    5.532461    -0.036910    -0.809576    -1.837448    3.016594    -0.561548    -4.097032    -4.021578    -10.275098    0.000000    0.000000    0.000000    
41.317677    88.221359    47.854053    -1.826814    -1.560030    88.540176    -1.940053    -3.898048    -1.219979    3.904818    2.819916    -1.250125    -0.938059    16.186762    6.128549    -4.391315    -2.083785    5.676196    15.872121    -1.533655    2.946010    -9.309339    10.779496    -6.556014    6.505226    -3.184657    -1.774140    -3.296614    -2.651325    -14.969013    -10.719202    -0.130040    4.781319    11.757107    2.939376    10.598416    -3.002935    -1.663841    1.261277    2.037206    -1.543938    4.885028    2.464428    2.653553    3.414050    -3.398106    -1.415098    1.472127    6.208109    -4.009908    4.197741    0.000000    0.000000    0.000000    5.530886    -0.021190    -0.775945    -1.824034    3.002364    -0.568628    -4.069290    -3.995608    -10.278852    0.000000    0.000000    0.000000    
41.309841    88.223961    47.827442    -1.811278    -1.576249    88.495232    -1.949865    -3.861103    -1.238276    3.931297    2.782390    -1.268071    -0.955448    16.187843    6.121233    -4.349940    -2.067562    5.675810    15.887851    -1.539753    2.927050    -9.301687    10.727155    -6.501484    6.422784    -3.086285    -1.665888    -3.133454    -2.585896    -14.817430    -10.727765    -0.135921    4.827065    11.712654    2.941491    10.554752    -3.016433    -1.619766    1.252450    2.055689    -1.500759    4.796795    2.458041    2.678508    3.396039    -3.398418    -1.425448    1.497156    6.257565    -4.003009    4.238543    0.000000    0.000000    0.000000    5.527111    -0.011974    -0.746949    -1.822488    3.000970    -0.553399    -4.065137    -3.972645    -10.279389    0.000000    0.000000    0.000000    
